<svg xmlns="http://www.w3.org/2000/svg" width="249.382" height="61.78" viewBox="0 0 249.382 61.78"><path d="M136.88,72V56.219h11.5v1.934h-9.421v4.791h8.712V64.77h-8.712v5.35h9.582V72Zm52.112-23.209a10.329,10.329,0,0,1-2.111-6.665,10.6,10.6,0,0,1,1.806-6.225,7.827,7.827,0,0,1,6.861-3.321q4.748,0,7.031,3.052a9.893,9.893,0,0,1,1.782,6.091,10.663,10.663,0,0,1-2.038,6.678,9.058,9.058,0,0,1-13.33.391Zm2.161-12.14a8.051,8.051,0,0,0-1.758,5.633,8.23,8.23,0,0,0,1.507,5.024q1.508,2.044,4.889,2.044a5.059,5.059,0,0,0,4.645-2.3,9.8,9.8,0,0,0,1.435-5.292,7.55,7.55,0,0,0-1.654-5.09,5.647,5.647,0,0,0-4.523-1.929A5.89,5.89,0,0,0,191.153,36.651ZM240.713,51V33.068h7.263a6.846,6.846,0,0,1,5.738,2.624,9.677,9.677,0,0,1,1.819,6.067,12.1,12.1,0,0,1-1.074,5.163A6.628,6.628,0,0,1,247.952,51Zm2.442-2.075h4.334a6.7,6.7,0,0,0,2.026-.257,4.457,4.457,0,0,0,2.319-1.831,7.487,7.487,0,0,0,1.038-2.783,10.594,10.594,0,0,0,.184-1.88A8.757,8.757,0,0,0,251.73,37a4.893,4.893,0,0,0-4.266-1.843h-4.309ZM224.16,51V33.068h13.074v2.2H226.529V40.71h9.9v2.075h-9.9v6.079h10.888V51Zm-11.645,0-6.531-17.932h2.686l5.152,15.271,5.09-15.271h2.723L215.091,51ZM173.9,51V33.068h2.429v15.8h9.082V51Zm-71.1,0V43.773L96.031,33.068h2.832l5.152,8.618,5.151-8.618h2.845l-6.775,10.705V51ZM85.362,51V33.068h2.429v15.8h9.082V51Zm-5.847,0a2.254,2.254,0,0,1-.2-.6,11.663,11.663,0,0,1-.122-1.416L79.051,46a2.513,2.513,0,0,0-1.307-2.356,5.4,5.4,0,0,0-2.184-.329H70.03V51H67.6V33.068h8.3a8.277,8.277,0,0,1,3.381.6A4.234,4.234,0,0,1,81.81,37.9a4.763,4.763,0,0,1-.665,2.637,4.814,4.814,0,0,1-1.862,1.648,3.664,3.664,0,0,1,1.581,1.123,4.039,4.039,0,0,1,.592,2.258l.086,2.4a7.42,7.42,0,0,0,.17,1.525,1.5,1.5,0,0,0,.782,1.1V51ZM70.03,41.283h5.615a4.712,4.712,0,0,0,2.7-.683,2.784,2.784,0,0,0,.994-2.466,2.646,2.646,0,0,0-1.391-2.613,4.554,4.554,0,0,0-1.99-.366H70.03ZM62.438,51l-1.819-5.371H53.527L51.585,51H49.1l6.751-17.932h2.746L65.1,51Zm-8.215-7.349h5.615l-2.722-7.922ZM34.19,51V33.068H47.264v2.2H36.559V40.71h9.9v2.075h-9.9v6.079H47.447V51ZM16.014,51V33.068h7.264a6.846,6.846,0,0,1,5.737,2.624,9.671,9.671,0,0,1,1.819,6.067,12.1,12.1,0,0,1-1.074,5.163A6.628,6.628,0,0,1,23.252,51Zm2.442-2.075h4.333a6.715,6.715,0,0,0,2.027-.257,4.464,4.464,0,0,0,2.319-1.831,7.518,7.518,0,0,0,1.038-2.783,10.673,10.673,0,0,0,.183-1.88A8.757,8.757,0,0,0,27.031,37a4.893,4.893,0,0,0-4.266-1.843H18.455Zm243.12-11.06-1.611,2.381-1.246-.867,1.672-2.3-2.686-.867.489-1.354,2.637.952V33.068h1.416V35.79l2.661-.928.488,1.354-2.66.867,1.648,2.3-1.209.867ZM136.622,26V10.22H143.4a4.493,4.493,0,0,1,3.942,1.654,3.826,3.826,0,0,1,.688,2.256,3.549,3.549,0,0,1-.849,2.449,4.161,4.161,0,0,1-1.267.924,5.375,5.375,0,0,1,1.815,1.041,3.781,3.781,0,0,1,1.063,2.847,4.4,4.4,0,0,1-.956,2.761A5.385,5.385,0,0,1,143.293,26Zm2.1-1.826h4.608a3.251,3.251,0,0,0,2.8-1.138,2.869,2.869,0,0,0,.526-1.741,2.315,2.315,0,0,0-1.536-2.342,5.8,5.8,0,0,0-2.159-.333h-4.243Zm0-7.284h3.888a4.79,4.79,0,0,0,2.106-.376,2.165,2.165,0,0,0,1.182-2.127,2.05,2.05,0,0,0-1.257-2.083,5.641,5.641,0,0,0-2.105-.3h-3.813Z" transform="translate(-16.014 -10.22)" fill="#fff"/></svg>