<svg version="1.1" id="Layer_1" xmlns="http://www.w3.org/2000/svg" xmlns:xlink="http://www.w3.org/1999/xlink" x="0px" y="0px" viewBox="0 0 160 51" style="enable-background:new 0 0 160 51;" xml:space="preserve"><polygon points="79.2,41.6 79.2,50.9 80.9,50.9 80.9,46.9 84.4,46.9 84.4,45.2 80.9,45.2 80.9,43.3&#10;        84.7,43.3 84.7,41.6 "/><path d="M82,7.7c-1.7,0-3-1.4-3-3c0-1.7,1.4-3,3-3c1.7,0,3,1.4,3,3C85,6.4,83.7,7.7,82,7.7 M82-0.1&#10;        c-2.7,0-4.8,2.2-4.8,4.8c0,2.7,2.2,4.8,4.8,4.8c2.7,0,4.8-2.2,4.8-4.8C86.8,2.1,84.6-0.1,82-0.1"/><polygon points="105.4,21 103.7,21 103.7,30.3 108.7,30.3 108.7,28.6 105.4,28.6 "/><polygon points="154.5,21 154.5,30.3 160,30.3 160,28.6 156.2,28.6 156.2,26.3 159.7,26.3 159.7,24.6&#10;        156.2,24.6 156.2,22.7 160,22.7 160,21 "/><path d="M123.2,28.6c-1.7,0-3-1.4-3-3c0-1.7,1.4-3,3-3c1.7,0,3,1.4,3,3C126.2,27.3,124.8,28.6,123.2,28.6&#10;         M123.2,20.8c-2.7,0-4.8,2.2-4.8,4.8c0,2.7,2.2,4.8,4.8,4.8c2.7,0,4.8-2.2,4.8-4.8C128,22.9,125.8,20.8,123.2,20.8"/><polygon points="140.9,27 138,21 136.1,21 140.5,30.2 141.3,30.2 145.6,21 143.7,21 "/><polygon points="6.4,20.9 6.4,27.7 1.7,20.9 0,20.9 0,30.2 1.7,30.2 1.7,23.8 6.4,30.2 8,30.2 8,20.9 "/><polygon points="39.7,26.7 36.7,20.9 35.1,20.9 35.1,30.2 36.7,30.2 36.7,24.9 36.9,24.9 39.7,30.1&#10;        42.5,24.9 42.6,25 42.6,30.2 44.3,30.2 44.3,20.9 42.7,20.9 "/><polygon points="55,30.2 60.5,30.2 60.5,28.5 56.7,28.5 56.7,26.2 60.1,26.2 60.1,24.6 56.7,24.6 56.7,22.6&#10;        60.5,22.6 60.5,20.9 55,20.9 "/><path d="M20.4,26.4l1.1-2.2l1.1,2.2H20.4z M21.1,21l-4.4,9.2h1.9l1-2.1h3.7l1,2.1h1.9L21.8,21L21.1,21z"/></svg>